<?xml version="1.0" encoding="utf-8"?>
<!-- Generator: Adobe Illustrator 22.0.1, SVG Export Plug-In . SVG Version: 6.00 Build 0)  -->
<svg version="1.1" id="Layer_1" xmlns="http://www.w3.org/2000/svg" xmlns:xlink="http://www.w3.org/1999/xlink" x="0px" y="0px"
	 viewBox="0 0 1024 234.3" style="enable-background:new 0 0 1024 234.3;" xml:space="preserve">
<style type="text/css">
	.st0{fill:#121718;}
	.st1{fill:#231F20;}
</style>
<g>
	<g>
		<path class="st0" d="M272.4,88.7c1.9,0.2,0.9-1.1,0.6-1.4c-5.3-6-9-0.6-6.9,0.3C267.5,88.2,270.4,88.5,272.4,88.7z"/>
		<path class="st0" d="M292.1,96.5c-4.9-5.1-5.7-6.4-7.5-10.9c-2.4-5.7-6.3-9.6-14.6-14.3c0-2.4-0.4-5.8-2.6-7.4
			c-0.8-0.6-2.5-1.4-4.8-0.3c-0.9,0.4-1.3,0.4-1.3,0.4c-0.5-0.3-1.3-2.5-1.7-3.5c-0.9-2.4-2.3-3.9-4.2-4.5c-3.1-1-6.5,1-9.7,3.2
			c-3.5,2.5-10.1-0.7-14-2.6l-0.8-0.4c-1.3-0.8-9.8-5.3-22.3-2.7c1.5,0.7,3,1.4,4.4,2.2c1.5,0.8,2.9,1.8,4.3,2.7
			c6.5,0.3,10.5,2.6,10.7,2.7l1.2,0.6c5,2.4,13.5,6.5,19.7,2.1c3.7-2.6,4.7-2.4,4.7-2.4c0,0,0.3,0.2,0.6,1.1c1,2.8,2.1,5.6,4.8,6.7
			c1.5,0.6,3.1,0.6,5.1-0.1c0.2,0.9,0.3,2.4,0.1,3.6l-0.2,1.8l1.6,0.9c9.2,5.1,11.9,8.3,13.6,12.4c2.2,5.3,3.5,7.2,8.6,12.6
			c2.4,2.6,1.8,3.3,0.5,4.8c-0.3,0.4-0.6,0.7-0.8,1.1c-2.3,3.4-10.3,5.8-13.8,4.5c-13-4.9-23-5.9-34.1-4.7c-0.2,0-0.4,0-0.6,0.1
			c-2.7,0.3-5.4,0.8-8.1,1.4c2.5-10.4,0.5-19.9,0.2-20.9c-2.5-10.4-9.5-21.1-20.5-27.3c-17.9-10.1-43.6-0.6-67,7.1
			c-25.2,8.3-45.6,16-53.3,37.8c-2,5.7-2.9,12-3.8,18.7c-1.4,10.1-2.9,20.6-8.3,30.4c-0.2,0.4-5.3,8.9,0,17.3
			c0.2,0.4,0.5,0.8,0.8,1.1c0.1,0.1,0.2,0.2,0.3,0.3c0.2,0.2,0.4,0.5,0.7,0.7c0.1,0.1,0.3,0.2,0.4,0.4c0.2,0.2,0.5,0.4,0.8,0.6
			c0.1,0.1,0.3,0.2,0.4,0.3c0.3,0.2,0.6,0.4,0.9,0.6c0.1,0.1,0.2,0.2,0.4,0.2c0.4,0.3,0.9,0.5,1.4,0.8c0.1,0.1,0.2,0.1,0.3,0.2
			c0.4,0.2,0.7,0.4,1.1,0.5c0.2,0.1,0.4,0.2,0.6,0.2c0.3,0.1,0.7,0.3,1,0.4c0.2,0.1,0.4,0.1,0.6,0.2c0.3,0.1,0.7,0.2,1,0.3
			c0.2,0.1,0.4,0.1,0.6,0.2c0.4,0.1,0.8,0.2,1.2,0.3c0.1,0,0.2,0.1,0.4,0.1c0.5,0.1,1.1,0.2,1.6,0.3c0.2,0,0.3,0.1,0.5,0.1
			c0.4,0.1,0.7,0.1,1.1,0.2c0.2,0,0.4,0.1,0.6,0.1c0.3,0,0.6,0.1,1,0.1c0.2,0,0.4,0,0.6,0c0.3,0,0.7,0,1,0c0.2,0,0.3,0,0.5,0
			c0,0,0.1,0,0.1,0c0.1,0,0.2,0,0.2,0c0.5,0,1.1,0,1.6-0.1c0.2,0,0.3,0,0.5,0c0.6-0.1,1.1-0.2,1.6-0.3c4-1,4.6-3.7,4.7-4.8
			c0.4-6.2-4-8.7-6.4-10c-0.1-0.1-0.3-0.2-0.5-0.3c0.1-0.1,0.2-0.2,0.4-0.3c0.9-0.9,2.1-1.8,3.4-2.9c5.8-4.9,14.4-12.1,20.5-24.9
			c1.1,0.7,2.2,1.4,3.4,2.1c0.7,0.4,1.5,0.7,2.3,1.1c7.7,6.8,11.7,13.6,15.2,19.7c6.5,11.1,11.6,19.9,32.8,19.9c0.8,0,1.7,0,2.6,0
			c3.1-0.1,5.5-2.5,5.9-5.8c0.4-3.3-1.4-7.2-5.5-8.3c-7.6-2-8.3-6.2-9.1-14.5c-0.3-3.6-0.7-7.6-2-11.7c1.3-0.5,2.6-1,3.9-1.6
			c-0.3-1.9-0.5-3.9-0.8-5.9c-2.6,1.2-5.2,2.3-7.7,3.2c-12.7,4.2-25.8,3.8-35.1-1c-1.9-1-3.6-2.2-5.1-3.5c0,0,0,0-0.1-0.1
			c-2.4-2.2-4.1-4.7-5-7.6c-1.9-6.2-2-10.2,3.4-16.9c5.7-7,14.5-12.6,24.8-15.9c1.5-0.5,2.3-2.1,1.9-3.6c-0.5-1.5-2.1-2.3-3.6-1.9
			c-11.3,3.5-21.1,9.8-27.5,17.7c-6.7,8.2-7,14.1-4.5,22.2c1,3.2,2.7,6,5,8.6c-5.6,12.6-14,19.7-19.6,24.4c-1.4,1.2-2.6,2.2-3.6,3.1
			c-1.4,1.3-3,3.1-2.7,5.4c0.3,2.4,2.3,3.5,3.9,4.4c2.2,1.2,3.5,2,3.5,4.2c-0.8,0.3-3.1,0.6-6.8,0c-5.1-0.9-9.7-3.2-11.2-5.5
			c-3.4-5.4-0.1-11.1,0.1-11.4c6-10.8,7.6-22.3,9-32.4c0.9-6.4,1.8-12.4,3.6-17.6c7.1-20.2,26.2-26.6,49.7-34.3
			c21.9-7.2,45.8-16.9,62.4-7.5c9.5,5.4,15.7,14.9,17.7,23.7l0,0.2c0.2,0.5,2.3,8.2-1.1,19c0,0-0.3,0.9-1,2.8
			c-12.1,3.2-23.2,8.5-33.2,13.2c-0.7,0.3-2.4,1.2-3.2,1.5c0,3,0.2,4.7,0.2,4.8l0,0.2c0,0.4,0,0.8,0.1,1.2c1.4-0.7,3.9-1.9,5.4-2.6
			c8.7-4.1,17.8-8.4,27.4-11.5c-3,4.7-7.3,8.8-13.6,14.4c-7.7,6.9-10.1,15.9-6.8,25.5c2.5,7.2,9.6,16.2,14.6,16.5
			c1.1,0.1,1.1,1.5,1.1,1.5c0,0.3,0,1.3-1.8,1.3c-0.4,0-0.8,0-1.3,0c-6.7,0.2-24.5,0.7-29.7-47.4c-0.1-0.5-6.4-45.9,12.9-63.2
			c0,0,0-0.1,0.1-0.1c0.4-0.4,0.8-0.8,1.3-1.2c-2.1-0.7-4.2-1.3-6.4-1.8c-20,19.9-13.8,65.1-13.5,66.9c5,46.2,21.7,52.4,34.3,52.4
			c0.4,0,0.8,0,1.2,0c0.4,0,0.8,0,1.1,0c5,0,7.4-3.5,7.5-6.8c0.1-3.9-2.7-7.1-6.3-7.3c-1.7-0.4-8.2-6.3-10.2-14.5
			c-1.6-6.1-0.1-11.6,4.4-16.2c11.3,6.2,26.9,18,25.1,26.1c-2.2,9.9,1.4,12.9,4.8,13.7c0.7,0.2,1.3,0.2,1.9,0.2
			c3.8,0,5.6-3.3,8.3-8.3l0.3-0.5c9.6-17.5-4.8-34.5-11-41.8c-4.1-4.9,0.2-10.3,2.9-14.6c10-1,18.8,0.1,30.5,4.5
			c11.7,4.3,18.6-3.8,20.5-6.7c0.1-0.2,0.3-0.3,0.4-0.5C294.2,107.2,298,102.8,292.1,96.5z M147.9,142.1c5.4,0,11-0.8,16.5-2.3
			c1.1,3.5,1.4,7,1.8,10.4c0.8,8,1.6,16.3,13.3,19.5c1.5,0.4,1.3,2.1,1.3,2.1c0,0-0.1,0.8-0.4,0.8c-19.9,0.6-23.9-6-30.3-17
			c-2.4-4.1-5.3-9-9.4-13.9C143,141.9,145.5,142.1,147.9,142.1z M244.6,165.3l-0.3,0.5c-1.4,2.5-2.8,5.1-3.4,5.4c0,0-0.1,0-0.5-0.1
			c-1.8-0.4-0.9-5.4-0.6-7c2.9-13.1-17.6-26.4-26.4-31.4c8.2-8,13-11.9,15.7-18.9c1.7-0.5,3.5-0.9,5.3-1.2
			c-2.7,5.7-5.6,10.9-0.2,17.3C240.1,136.8,252.3,151.3,244.6,165.3z"/>
	</g>
	<g>
		<path class="st1" d="M337.9,87.3h24.5c6.2,0,11.1,1.5,14.6,4.5c3.6,3,5.3,6.8,5.3,11.4c0,6.8-3.9,11.3-11.8,13.6
			c4,0.6,7.2,2.3,9.6,5.2c2.4,2.9,3.6,6.2,3.6,9.9c0,4.7-1.8,8.6-5.4,11.5c-3.6,2.9-8.4,4.4-14.6,4.4h-25.9V87.3z M350.1,96.7v15.7
			h11c2.7,0,4.9-0.7,6.5-2c1.6-1.4,2.4-3.3,2.4-5.8c0-2.5-0.8-4.4-2.4-5.8c-1.6-1.4-3.7-2.1-6.5-2.1H350.1z M350.1,138.5h12.3
			c2.7,0,4.9-0.7,6.5-2.2c1.6-1.5,2.5-3.5,2.5-6.1c0-2.6-0.8-4.7-2.5-6.2c-1.7-1.5-3.9-2.3-6.6-2.3h-12.2V138.5z"/>
		<path class="st1" d="M412.3,148.5c-7,0-12.7-2.3-17.1-6.8c-4.4-4.5-6.6-10.5-6.6-18c0-7.5,2.2-13.4,6.6-17.9
			c4.4-4.5,10.1-6.7,17.2-6.7c7,0,12.8,2.2,17.3,6.5c4.5,4.4,6.8,10.2,6.8,17.5c0,1.7-0.1,3.2-0.3,4.7h-35c0.3,3.1,1.4,5.6,3.5,7.5
			c2,1.9,4.6,2.9,7.7,2.9c4.2,0,7.3-1.7,9.4-5.2h13.2c-1.4,4.6-4.1,8.3-8.1,11.2C422.8,147.1,418,148.5,412.3,148.5z M420.4,112.3
			c-2.2-1.9-4.8-2.9-7.8-2.9c-3.1,0-5.6,1-7.7,2.9c-2.1,1.9-3.3,4.5-3.7,7.6h22.7C423.7,116.7,422.5,114.2,420.4,112.3z"/>
		<path class="st1" d="M447.1,141.6c-4.3-4.7-6.5-10.6-6.5-17.8c0-7.2,2.1-13.1,6.4-17.7c4.3-4.6,9.7-6.9,16.3-6.9
			s11.6,2.7,15.1,8.2v-7.5h12.1v48h-12.1v-8.1c-3.6,5.8-8.7,8.8-15.2,8.8C456.8,148.5,451.4,146.2,447.1,141.6z M474.6,134.2
			c2.5-2.5,3.8-6,3.8-10.4c0-4.4-1.3-7.8-3.8-10.4c-2.5-2.5-5.5-3.8-8.9-3.8c-3.4,0-6.4,1.2-8.9,3.7c-2.5,2.5-3.8,5.9-3.8,10.3
			c0,4.4,1.3,7.9,3.8,10.4c2.5,2.5,5.5,3.8,8.9,3.8C469.1,138,472.1,136.7,474.6,134.2z"/>
		<path class="st1" d="M513.6,99.8v8.5c3.2-6.1,7.9-9.2,14-9.2v12.5h-3c-3.6,0-6.4,0.9-8.2,2.7c-1.9,1.8-2.8,5-2.8,9.4v24.1h-12.2
			v-48H513.6z"/>
		<path class="st1" d="M558,147.8V87.3h37.5v9.4h-25.2v15.9h19.2v9.4h-19.2v25.9H558z"/>
		<path class="st1" d="M606.7,141.7c-4.7-4.6-7-10.5-7-17.9c0-7.4,2.4-13.4,7.1-17.9c4.7-4.5,10.6-6.8,17.6-6.8
			c7,0,12.9,2.3,17.6,6.8c4.7,4.5,7.1,10.5,7.1,17.9c0,7.4-2.4,13.4-7.2,17.9c-4.8,4.6-10.7,6.9-17.7,6.9
			C617.2,148.5,611.3,146.3,606.7,141.7z M624.3,138.2c3.4,0,6.3-1.3,8.8-3.8c2.5-2.5,3.7-6.1,3.7-10.7c0-4.6-1.2-8.1-3.6-10.6
			s-5.4-3.7-8.8-3.7c-3.4,0-6.3,1.2-8.7,3.7c-2.4,2.5-3.6,6-3.6,10.7c0,4.6,1.2,8.2,3.6,10.7C618,137,620.8,138.2,624.3,138.2z"/>
		<path class="st1" d="M689.8,99.8H702v48h-12.2v-7.3c-3.1,5.3-8.1,7.9-15,7.9c-5.4,0-9.9-1.8-13.4-5.4c-3.5-3.6-5.2-8.6-5.2-15
			V99.8h12.1v26.4c0,3.8,1,6.6,2.9,8.7c1.9,2,4.5,3,7.8,3s5.9-1,7.8-3c1.9-2,2.9-4.9,2.9-8.7V99.8z"/>
		<path class="st1" d="M725.1,99.8v7.2c3.1-5.3,8-7.9,14.9-7.9c5.5,0,10,1.8,13.4,5.4c3.5,3.6,5.2,8.6,5.2,15v28.3h-12.1v-26.5
			c0-3.8-1-6.6-2.9-8.6s-4.5-3-7.8-3c-3.3,0-5.9,1-7.8,3c-1.9,2-2.9,4.9-2.9,8.6v26.5h-12.2v-48H725.1z"/>
		<path class="st1" d="M772.1,141.6c-4.3-4.7-6.5-10.6-6.5-17.8c0-7.2,2.1-13.1,6.4-17.7c4.3-4.6,9.7-6.9,16.3-6.9
			s11.6,2.7,15.1,8.2V83.7h12.1v64.2h-12.1v-8.1c-3.6,5.8-8.7,8.8-15.2,8.8C781.8,148.5,776.4,146.2,772.1,141.6z M799.7,134.2
			c2.5-2.5,3.8-6,3.8-10.4c0-4.4-1.3-7.8-3.8-10.4c-2.5-2.5-5.5-3.8-8.9-3.8c-3.4,0-6.4,1.2-8.9,3.7c-2.5,2.5-3.8,5.9-3.8,10.3
			c0,4.4,1.3,7.9,3.8,10.4c2.5,2.5,5.5,3.8,8.9,3.8C794.2,138,797.1,136.7,799.7,134.2z"/>
		<path class="st1" d="M846.8,148.5c-7,0-12.7-2.3-17.1-6.8c-4.4-4.5-6.6-10.5-6.6-18c0-7.5,2.2-13.4,6.6-17.9
			c4.4-4.5,10.1-6.7,17.2-6.7c7,0,12.8,2.2,17.3,6.5c4.5,4.4,6.8,10.2,6.8,17.5c0,1.7-0.1,3.2-0.3,4.7h-35c0.3,3.1,1.4,5.6,3.5,7.5
			c2,1.9,4.6,2.9,7.7,2.9c4.2,0,7.3-1.7,9.4-5.2h13.2c-1.4,4.6-4.1,8.3-8.1,11.2C857.2,147.1,852.4,148.5,846.8,148.5z M854.8,112.3
			c-2.2-1.9-4.8-2.9-7.8-2.9c-3.1,0-5.6,1-7.7,2.9c-2.1,1.9-3.3,4.5-3.7,7.6h22.7C858.1,116.7,856.9,114.2,854.8,112.3z"/>
		<path class="st1" d="M890.6,99.8v8.5c3.2-6.1,7.9-9.2,14-9.2v12.5h-3c-3.6,0-6.4,0.9-8.2,2.7c-1.9,1.8-2.8,5-2.8,9.4v24.1h-12.2
			v-48H890.6z"/>
		<path class="st1" d="M908.5,113.9c0-4.2,1.8-7.7,5.3-10.5c3.5-2.8,8.2-4.2,14-4.2s10.5,1.4,14,4.2c3.5,2.8,5.4,6.6,5.6,11.4H935
			c-0.3-4-2.8-6.1-7.5-6.1c-2.3,0-4.1,0.5-5.4,1.4c-1.3,0.9-1.9,2.2-1.9,3.8c0,1.6,1,2.9,2.9,3.8c1.9,0.9,4.2,1.6,6.9,2.2
			c2.7,0.5,5.4,1.2,8.1,2s5,2.2,6.9,4.2c1.9,2,2.9,4.6,2.9,7.9c0,4.3-1.8,7.9-5.5,10.6c-3.7,2.7-8.4,4.1-14,4.1
			c-5.7,0-10.4-1.3-14-4c-3.6-2.7-5.6-6.5-6-11.6h12.5c0.5,4,3,6.1,7.7,6.1c2.3,0,4.1-0.5,5.5-1.5c1.4-1,2.1-2.3,2.1-4
			s-1-2.9-2.9-3.9c-1.9-1-4.2-1.7-6.9-2.2c-2.7-0.5-5.4-1.2-8.1-1.9c-2.7-0.8-5-2.1-6.9-4C909.4,119.5,908.5,117,908.5,113.9z"/>
	</g>
</g>
</svg>
