<svg xmlns="http://www.w3.org/2000/svg" viewBox="0 0 670.38 239"><defs><style>.cls-1{fill:#0099d8;}</style></defs><title>UiPath logo _blue</title><g id="Layer_2" data-name="Layer 2"><g id="Layer_1-2" data-name="Layer 1"><g id="UiPath_logo" data-name="UiPath logo"><path class="cls-1" d="M670.38,193.83V127.18c0-26.84-8.19-43.68-33.41-43.68-14.67,0-25.07,9-34,17.49a291.48,291.48,0,0,0-24.31,28.69v18.1c6.62-7.52,16.33-18.61,25.18-28.18,9-8.65,15.11-13.2,24.53-13.2,11.83,0,16.86,6.49,16.86,24v63.41Z"/><path class="cls-1" d="M578.62,193.83H603.8V129.9c-6.79,7.4-18.75,20.61-25.18,28.26Z"/><path class="cls-1" d="M238.51,231.85V7.16A7.17,7.17,0,0,0,231.35,0H7.16A7.17,7.17,0,0,0,0,7.16V231.85A7.16,7.16,0,0,0,7.16,239H231.35A7.16,7.16,0,0,0,238.51,231.85ZM229,229.68H9.32V9.64H229Z"/><path class="cls-1" d="M90.81,194.5c33,0,53.59-18.31,53.59-65.18v-80H120.32v82c0,31-12.15,41.21-29.51,41.21-17.14,0-28.64-10.25-28.64-41.21v-82H37v80C37,176.19,58.05,194.5,90.81,194.5Z"/><path class="cls-1" d="M190.18,68.72c8.9,0,15.41-5.88,15.41-14.17,0-8.5-6.51-14.39-15.41-14.39s-15.41,5.89-15.41,14.39C174.77,62.84,181.28,68.72,190.18,68.72Z"/><rect class="cls-1" x="177.6" y="87.47" width="24.95" height="107.03"/><path class="cls-1" d="M269.57,45.25V74.4c8-10,15.41-18.82,21.52-23.67l-.91-5.48Z"/><path class="cls-1" d="M294.68,143.37c21.4,20.64,68,13.35,72.1-38.43,4.54-57-32.52-66.63-51.84-61.31-7,1.93-13.87,6.66-20.26,12.62-10,9.29-18.77,21.58-25.11,31v18.81a146.61,146.61,0,0,1,25.11-30.91q3.49-3.21,7.45-6.29c18.33-14.19,41.52-4.35,38.83,32.33-2.55,34.85-27.56,40.59-46.28,23.53V83.33l-25.11,34v76.48h25.11Z"/><path class="cls-1" d="M447.25,182.15h.65l2,11.68h20.34v-63c0-29.65-13-45.88-39.6-45.88-16.88,0-31.82,6.49-43.5,13.85l9.09,16.66c9.3-5.63,19.26-10.39,29.86-10.39,14.29,0,19,9.52,19.27,20.78-43.5,4.76-62.55,16.66-62.55,39.39,0,18.61,13,31.16,31.6,31.16C426.91,196.43,437.73,190.15,447.25,182.15ZM407,163.32c0-10.61,9.52-18.18,38.31-21.86v23.81c-7.8,7.35-14.5,11.68-23.16,11.68C413.28,177,407,172.84,407,163.32Z"/><path class="cls-1" d="M559.57,192.54l-4.32-18.4a30.49,30.49,0,0,1-11,2.38c-10.17,0-14.93-6.06-14.93-18.61V107.27h27.05V87.57H529.28v-29H508.5l-3,29L489,88.65v18.62h15.15v50.64c0,22.94,9.09,38.52,33.76,38.52A68.07,68.07,0,0,0,559.57,192.54Z"/></g><path class="cls-1" d="M603.8,91.42V45.25H578.62v72.63A178.71,178.71,0,0,1,603.8,91.42Z"/></g></g></svg>